<svg width="62" height="45" viewBox="0 0 62 45" fill="none" xmlns="http://www.w3.org/2000/svg">
<path d="M13.513 24.3799H11.4814V26.4223H13.513V24.3799Z" fill="#4CD3C4"/>
<path d="M17.6146 28.4648H15.583V30.5072H17.6146V28.4648Z" fill="#4CD3C4"/>
<path d="M19.6673 30.5073H17.6357V32.5497H19.6673V30.5073Z" fill="#4CD3C4"/>
<path d="M21.3568 33.6831H19.3252V35.7255H21.3568V33.6831Z" fill="#4CD3C4"/>
<path d="M25.411 37.8125H23.3794V39.8549H25.411V37.8125Z" fill="#4CD3C4"/>
<path d="M27.4422 39.855H25.4106V41.8974H27.4422V39.855Z" fill="#4CD3C4"/>
<path d="M29.4739 41.8975H27.4424V43.9399H29.4739V41.8975Z" fill="#4CD3C4"/>
<path d="M13.513 28.4648H11.4814V30.5072H13.513V28.4648Z" fill="#4CD3C4"/>
<path d="M17.2728 33.728H15.2412V35.7704H17.2728V33.728Z" fill="#4CD3C4"/>
<path d="M19.325 35.77H17.2935V37.8124H19.325V35.77Z" fill="#4CD3C4"/>
<path d="M21.3568 37.8726H19.3252V39.9149H21.3568V37.8726Z" fill="#4CD3C4"/>
<path d="M25.411 41.8975H23.3794V43.9399H25.411V41.8975Z" fill="#4CD3C4"/>
<path d="M21.3568 41.8975H19.3252V43.9399H21.3568V41.8975Z" fill="#4CD3C4"/>
<path d="M15.244 35.8301H13.2124V37.8725H15.244V35.8301Z" fill="#4CD3C4"/>
<path d="M17.2757 37.9351H15.2441V39.9774H17.2757V37.9351Z" fill="#4CD3C4"/>
<path d="M13.1678 33.7578H11.1362V35.8002H13.1678V33.7578Z" fill="#4CD3C4"/>
<path d="M13.1678 37.9351H11.1362V39.9774H13.1678V37.9351Z" fill="#4CD3C4"/>
<path d="M17.2728 41.8975H15.2412V43.9399H17.2728V41.8975Z" fill="#4CD3C4"/>
<path d="M13.1678 42.1099H11.1362V44.1522H13.1678V42.1099Z" fill="#4CD3C4"/>
<path d="M60.328 19.7152H45.0749C44.605 19.7152 44.3105 20.0112 44.3105 20.4837V25.5762C44.3105 26.0487 44.605 26.3447 45.0749 26.3447H52.3178C53.3202 26.3447 53.9656 27.0564 53.9656 28.0612V32.6214C53.9656 35.8181 49.373 36.1739 47.0738 36.1739C28.5221 36.1739 28.5221 7.04221 47.0738 7.04221C50.194 7.04221 52.8442 8.22638 54.6111 9.53016C55.0245 9.8262 55.3755 9.76639 55.67 9.35373L58.8497 4.79349C59.0847 4.43764 59.0847 3.96517 58.6742 3.72893C55.081 1.65664 51.1369 0 47.0143 0C36.6305 0 29.816 5.69955 27.2817 13.1096L28.7006 21.6111L34.9796 35.4323L37.8589 41.1588C40.5211 42.346 43.4628 43.2221 47.0173 43.2221C52.1423 43.2221 57.0888 41.2694 60.5035 38.7217C60.8574 38.4256 61.0924 37.9532 61.0924 37.4777V20.4837C61.0924 20.0112 60.7979 19.7152 60.328 19.7152Z" fill="#4CD3C4"/>
<path d="M35.1668 32.2774L31.6034 25.31L28.5933 10.8219C28.4713 10.7411 28.4386 10.7262 28.3137 10.6484C27.0614 12.939 26.0471 16.6829 26.4933 22.3615C26.8116 25.1694 27.6831 27.8966 29.0573 30.3786C33.5785 38.5332 37.8557 41.1557 37.8557 41.1557C39.3906 39.535 39.8575 36.6583 40.039 34.4544L35.1668 32.2774Z" fill="#4CD3C4"/>
<path d="M28.7541 32.6451C28.7541 32.6451 23.2989 27.2745 19.0841 26.1412C19.0841 26.1412 22.707 25.6418 26.8148 29.3378V29.3438C25.6488 27.1788 24.8189 25.2979 24.4411 24.2603C23.3019 21.1264 21.1752 17.8729 21.1752 17.8729C17.3381 12.0269 12.4957 9.52395 12.4957 9.52395C19.1168 11.7188 23.3317 18.5009 25.268 22.3823C25.268 22.3823 24.0723 16.5034 27.9748 10.439C27.0973 9.9097 26.1604 9.42826 25.155 9.00663C11.9662 3.50742 0 3.77655 0 3.77655C3.04287 4.99062 5.31238 7.5324 6.86803 9.90671C8.28982 12.0747 9.31601 14.4849 10.0031 16.9878C10.5326 18.9106 11.059 20.6958 11.5677 22.3375H13.51V24.3799H15.5802V26.4223H17.6118V28.4647H19.6642V30.507H21.6957V32.5494H23.7183V34.5918H25.7499V36.6342H27.7815V38.6766H29.813V40.719H31.8446V42.7524C33.6292 42.6926 34.7566 42.3966 34.7566 42.3966C35.7114 42.268 36.4966 41.9181 37.148 41.4217C37.148 41.4187 37.154 41.4157 37.154 41.4098C37.154 41.4068 37.1599 41.4008 37.1599 41.3978C33.9505 39.789 31.0117 36.2006 28.7481 32.6481L28.7541 32.6451Z" fill="#4CD3C4"/>
</svg>
