<svg xmlns="http://www.w3.org/2000/svg" id="logo" viewBox="31.11 119.86 471.19 163.35">
  <path style="fill: #dd732d; stroke: #dd732d;stroke-miterlimit: 10;"
    d="m483.94,154.89v-2.86c-3.57.45-7.26-.18-10.49-1.77-.24-.11-.26-.11-.45-.09.01.03.01.06-.01.09-.06.08-.2-.08-.1-.08.04,0,.08-.01.11-.01-.01-.06-.07-.13-.11-.17-.71-.7-1.42-1.4-2.13-2.11-.65-.63-1.3-1.27-2.02-1.83-.85-.66-1.8-1.19-2.63-1.88-.65-.53-1.23-1.15-1.82-1.75-1.43-1.44-2.83-2.68-4.52-3.8-1.81-1.19-3.62-2.39-5.43-3.58-1.12-.75-2.26-1.49-3.5-2.04-1.68-.73-3.51-1.06-5.21-1.76-1.07-.45-2.07-1.03-3.14-1.47-1.73-.7-3.58-1-5.4-1.39-1.83-.39-3.63-.88-5.41-1.46-1.53-.5-3.04-1.07-4.62-1.39-2.04-.41-4.13-.39-6.19-.67-3.4-.48-6.63-.28-10.05-.66-17.04-1.87-34.4,2.1-49.9,9.43-3.5,1.65-6.92,3.48-10.17,5.59-9.7,6.33-17.17,15.17-22.36,25.52.07.85-1.11,1.16-1.97,1.09-2.65-.23-5.18-1.16-7.71-1.99-22.87-7.47-47.82-5.45-71.05.86-.98.27-1.96.54-2.94.8-.33.09-.68.18-.99.05-.35-.14-.55-.51-.72-.86-3.22-6.51-7.74-12.38-13.21-17.16-4.06-3.55-8.62-6.49-13.16-9.41-1.57-1.01-3.15-2.03-4.77-2.96-3.14-1.8-6.5-3.15-9.94-4.3.06-.03.12-.1.1-.17-.03-.13-.17-.2-.29-.25-8.5-3.38-17.3-6.02-26.26-7.88-4.76-.98-9.57-1.75-14.43-2.03-2.07-.13-4.56-.11-6.66-.05h-.04c-.2-.02-.4-.06-.61-.07-3.94-.19-8.02.07-11.93.38-2.43.19-4.84.28-7.27.42-1.3.07-2.56.65-3.88.73-1.4.08-2.71.4-4.09.63-2.7.44-5.37,1.08-8.11,1.36-1.39.14-2.64.66-3.96,1.05-1.37.4-2.74.77-4.12,1.19-4.82,1.5-9.41,3.58-13.89,5.88-1.26.65-2.5,1.21-3.59,2.11-.86.7-1.76,1.33-2.7,1.93-1.2.78-2.44,1.53-3.63,2.34-.64.43-1.46.93-1.75,1.68-2.58,1.95-5.25,3.79-7.99,5.5-.99.63-2,1.23-3.06,1.73-4.5,2.1-9.48,2.02-14.44,2.42.17,1.21.28,2.33.12,3.55h-24.29c-.81-.25-1.68-.32-2.53-.23l-1.02,21.89,27.61.15v1.58c.94-.27,1.94-.3,2.92-.32.88-.02,1.88-.01,2.52.61.42.41.6,1.01.73,1.59.68,2.84.95,5.91.61,8.81.02-.02.04-.02.06-.01.07.04.07.14.06.22-.48,3.81.67,7.65.56,11.49-.02.56-.06,1.11-.05,1.67.01.73.11,1.45.22,2.17.36,2.57.72,5.14,1.08,7.72.2,1.45.4,2.9.72,4.34.84,3.73,2.47,7.31,2.82,11.12,0,.07.02.15.05.21.13.05.25.16.15.15-.08-.02-.13-.07-.15-.15-.05-.02-.11-.03-.15,0,2.94,5.57,5.87,11.15,8.81,16.72.63,1.2,1.27,2.4,2.09,3.48.62.79,1.34,1.52,1.76,2.43.25.52.39,1.08.64,1.6.3.63.75,1.19,1.2,1.73,3.92,4.68,8.36,8.88,13.15,12.66,6.31,4.99,13.27,9.14,20.66,12.33,2.46,1.07,4.98,2.03,7.56,2.77,5.62,1.62,11.49,2.2,17.34,2.45,13.03.56,26.31.08,38.97-3.07,6.96-1.73,13.53-4.73,20.05-7.71,1.49-.68,2.99-1.37,4.39-2.21,1.68-1.01,3.22-2.24,4.74-3.47,4.77-3.81,9.53-7.67,13.75-12.07,7.07-7.38,13.45-15.57,17.28-25.04,6.28-15.53,8.34-32.35,5.71-48.9.52-1.26,1.88-1.92,3.14-2.43,14.59-5.91,30.86-7.05,46.44-4.86,1.69.24,3.37.58,5.02,1.03.91.24,1.82.52,2.72.8,2.36.72,4.72,1.44,7.08,2.17.77.23,1.54.47,2.31.7.52.16,1.04.32,1.54.52,1.87.74,3.71,2.42,5,3.97.1-.08.18-.21.21-.34,0-.12.01-.24.01-.36.03.12.03.24-.01.36-.08,2.4-.13,4.67-.18,7.08-.11,4.52.2,9.04.67,13.54.13,1.23.27,2.45.54,3.66.18.86.43,1.71.68,2.56.31,1.06.61,2.11.92,3.16.42,1.43.83,2.86,1.25,4.28.53,1.84,1.07,3.68,1.72,5.48,1.26,3.51,3.25,6.68,5.21,9.85,4.58,7.45,9.24,15,15.6,21,1.12,1.06,2.3,2.08,3.21,3.33.37.5.69,1.04,1.07,1.53.94,1.22,2.23,2.13,3.52,3,9.06,6.07,18.84,10.42,29.21,13.81,7.7,2.53,15.94,2.94,24.04,2.67,1.1-.04,2.19-.08,3.29-.15,5.18-.3,10.34-.95,15.43-1.94,1.69-.33,3.39-1.11,5.02-1.66,12.78-4.25,24.15-12.65,31.98-23.61,3.55-4.97,6.38-10.41,9.11-15.88,1.11-2.24,2.25-4.11,2.66-6.58.75-4.47,1.5-8.94,2.24-13.41.28-1.65.55-3.31.66-4.97.15-2.18,0-4.37.13-6.55.09-1.62.32-3.24.44-4.86.17-2.26.11-4.39.14-6.66.03-2.2.06-4.41.09-6.62.01-.96.02-1.92-.07-2.88-.12-1.21-.12-2.68.29-3.83-.07,0-.14,0-.21-.01.43-.19.92-.13,1.38-.16.83-.04,1.61-.39,2.37-.73,0-.4.23-.85.22-1.26h16.24v-19.89h-17.86Zm-282.02-24.02s-.09.01-.12-.04c.04.01.08.03.12.04Zm31.93,88.96c-4.03,10.41-8.48,20.42-16.7,28-7.6,7.01-15.71,13.75-25.27,17.71-1.7.7-3.41,1.38-5.13,2.04-3.85,1.48-7.76,2.84-11.81,3.63-1.47.29-2.97.5-4.46.71-8.28,1.16-16.82,2.19-24.92.09.01.06.01.14.01.2-1.93.09-3.86-.03-5.76-.36-2.04-.36-4.03-.96-6.01-1.56-2.08-.62-4.17-1.25-6.25-1.88-2.09-.63-4.18-1.26-6.17-2.13-1.58-.7-3.09-1.54-4.6-2.38-5.73-3.2-11.57-6.49-15.99-11.35-1.45-1.59-2.73-3.33-4-5.07-1.94-2.65-3.88-5.29-5.82-7.94-1.47-2-2.95-4.02-4.13-6.21-1.32-2.43-2.25-5.05-3.18-7.66-1.34-3.75-2.68-7.53-3.29-11.46-.67-4.37-1.01-8.47-1.54-12.86-.45-3.68-.03-7.32.29-11.01.21-2.35.49-4.68.77-7.02.21-1.83.45-3.71,1.37-5.31,1.22-2.14,1.2-4.74,2.35-6.91,2.45-4.62,6.1-8.17,9.57-12.08,4.45-5.02,9.87-9.14,15.75-12.35,1.36-.75,2.74-1.44,4.15-2.09,5.75-2.62,11.9-4.36,18.17-5.12,12.58-1.54,25.45-2.64,37.99-.81,12.77,1.87,25.42,5.11,37.12,10.55,1.59.74,3.21,1.55,4.41,2.84.95,1.03,2.34,1.64,3.61,2.26,2.37,1.15,4.25,3.09,6.07,4.99,2.21,2.31,4.43,4.62,6.6,6.96,1.66,1.79,3.31,3.62,4.6,5.69,1.15,1.85,2,3.87,2.73,5.92,4.82,13.46,4.62,28.64-.53,41.97Zm234.23-14.46c-1.03,8.87-2.22,17.08-5.33,25.45-3.28,8.82-8.11,17.29-15.32,23.34-3.35,2.8-7.14,5.04-11.12,6.83-17.34,7.84-37.85,7.09-55.58.17-3.25-1.27-6.44-2.74-9.41-4.57-4.3-2.65-8.12-6.02-11.63-9.64-4.73-4.88-8.95-10.24-12.57-15.98-5-7.92-8.9-16.7-10.13-25.98-.48-3.55-.56-7.14-.64-10.71-.11-4.81-2.44-9.19-.83-13.73,4.35-12.26,12.87-23,23.81-30.04,13.91-8.94,31.02-11.71,47.55-11.29,14.67.37,29.99,3.41,41.24,12.83,3.3,2.77,6.17,6.03,8.68,9.53,8.96,12.55,13.06,28.47,11.28,43.79Z"></path>
</svg>